<svg width="32" height="32" viewBox="0 0 32 32" fill="none" xmlns="http://www.w3.org/2000/svg">
<path fill-rule="evenodd" clip-rule="evenodd" d="M30.8518 14.0616L25.7166 11.2552C23.6198 10.1076 21.8909 8.38253 20.7432 6.2823L17.9365 1.14759C17.0978 -0.38253 14.9017 -0.38253 14.063 1.14759L11.2563 6.2823C10.1086 8.37885 8.38337 10.1076 6.28293 11.2552L1.1477 14.0616C-0.382567 14.9002 -0.382567 17.0961 1.1477 17.9347L6.28293 20.7448C8.37969 21.8924 10.1086 23.6175 11.2563 25.7177L14.0667 30.8524C14.9054 32.3825 17.1015 32.3825 17.9402 30.8524L20.7469 25.714C21.8946 23.6175 23.6198 21.8887 25.7203 20.7411L30.8555 17.931C32.3821 17.0961 32.3821 14.9002 30.8518 14.0616ZM23.5113 3.45399L23.4672 3.02728C23.2796 1.29101 21.249 0.452306 19.888 1.54483L19.5569 1.81336L20.8775 4.22648L23.5113 3.45399ZM5.75344 10.2845L5.21643 10.5788L4.13137 6.86383C3.6385 5.19027 5.19436 3.63808 6.86792 4.12728L10.5792 5.21601L10.2849 5.75302C9.23666 7.66935 7.66976 9.23624 5.75344 10.2845ZM26.2432 21.7121L26.7802 21.4179L27.8653 25.1328C28.3582 26.8064 26.8023 28.3586 25.1287 27.8694L21.4175 26.7806L21.7117 26.2436C22.76 24.3273 24.3269 22.7604 26.2432 21.7121ZM21.7124 5.75252C22.7607 7.66885 24.3276 9.23574 26.2439 10.284L26.781 10.5783L27.8697 6.86701C28.3589 5.19344 26.8067 3.63758 25.1331 4.13046L21.4219 5.21919L21.7124 5.75252ZM5.75293 21.7121C7.66925 22.7604 9.23615 24.3273 10.2844 26.2436L10.575 26.777L6.86374 27.8657C5.19017 28.3586 3.63799 26.8027 4.12719 25.1291L5.21592 21.4179L5.75293 21.7121ZM12.1015 1.54483L12.4399 1.81704L11.123 4.22648L8.47812 3.45031L8.52226 3.02728C8.70987 1.29101 10.7404 0.452306 12.1015 1.54483ZM1.80238 12.4472L4.22653 11.123L3.45404 8.48914L3.01629 8.53328C1.28003 8.72088 0.44132 10.7514 1.53384 12.1125L1.80238 12.4472ZM1.52945 19.9025L1.80902 19.5568L4.22213 20.881L3.44596 23.5296L3.0119 23.4818C1.27563 23.2942 0.436926 21.2636 1.52945 19.9025ZM30.1801 19.5568L27.7706 20.8737L28.5468 23.5222L28.9735 23.4744C30.7098 23.2868 31.5485 21.2562 30.456 19.8952L30.1801 19.5568ZM30.456 12.1126L30.1911 12.4437L27.7706 11.1194L28.5431 8.48557L28.9735 8.53339C30.7098 8.72099 31.5485 10.7515 30.456 12.1126ZM19.5494 30.1943L19.8878 30.4665C21.2489 31.559 23.2794 30.7203 23.467 28.9841L23.5148 28.5426L20.8773 27.7701L19.5494 30.1943ZM8.52283 28.984L8.47501 28.5462L11.1235 27.7737L12.4478 30.1905L12.102 30.4664C10.741 31.559 8.71043 30.7203 8.52283 28.984ZM13.1588 19.502C13.3055 19.6707 13.5292 19.755 13.8298 19.755H16.6898C17.5772 19.755 18.2775 19.557 18.7908 19.161C19.3042 18.765 19.5608 18.1893 19.5608 17.434C19.5608 16.9867 19.4252 16.609 19.1538 16.301C18.9545 16.0694 18.6998 15.8991 18.3897 15.7901C18.7919 15.6717 19.1273 15.4753 19.3958 15.201C19.7478 14.849 19.9238 14.398 19.9238 13.848C19.9238 13.496 19.8395 13.1807 19.6708 12.902C19.5022 12.6233 19.2345 12.4033 18.8678 12.242C18.5012 12.0807 18.0208 12 17.4268 12H14.9188C14.6475 12 14.4312 12.0697 14.2698 12.209C14.1085 12.3483 14.0058 12.5537 13.9618 12.825L13.0158 18.798C12.9718 19.0987 13.0195 19.3333 13.1588 19.502ZM16.5908 18.49H14.6988L15.0178 16.455H16.7778C17.1445 16.455 17.4268 16.5283 17.6248 16.675C17.8228 16.8217 17.9218 17.0417 17.9218 17.335C17.9218 17.7017 17.8118 17.9877 17.5918 18.193C17.3718 18.391 17.0382 18.49 16.5908 18.49ZM16.9098 15.19H15.2268L15.5238 13.265H17.1518C17.5405 13.265 17.8265 13.3347 18.0098 13.474C18.1932 13.6133 18.2848 13.8113 18.2848 14.068C18.2848 14.4347 18.1638 14.7133 17.9218 14.904C17.6872 15.0947 17.3498 15.19 16.9098 15.19Z" fill="white"/>
</svg>
